<svg aria-hidden="true" style="position:absolute; width:0;height:0;overflow:hidden"  xmlns="http://www.w3.org/2000/svg" xmlns:xlink="http://www.w3.org/1999/xlink">
  <defs>
    <symbol id="facebook" viewBox="0 0 32 32">
      <path d="M19.52 4.64h.96v3.6h-1.2c-.48 0-.96 0-1.2.24s-.24.48-.24 1.04v1.28h2.64v3.04h-2.64v13.2h-4.08V13.76H11.6v-3.04h2.16V9.68c0-1.76.24-3.04.72-3.6.72-1.04 2.16-1.52 4.32-1.52.24.08.48.08.72.08z"/>
    </symbol>
    <symbol id="youtube" viewBox="0 0 32 32">
      <path d="M24.24 6c-1.36-.08-4.16-.16-8.4-.16h-.56c-4.08 0-6.8.08-8.16.24-1.84.16-3.12.64-3.84 1.28-.64.56-1.12 1.6-1.28 2.96-.08.88-.16 2.72-.16 5.52v.4c0 2.64.08 4.48.24 5.36.24 1.28.64 2.24 1.44 2.8.8.64 2.16 1.04 4.08 1.2 1.36.08 4.16.16 8.4.16h.56c4.08 0 6.8-.08 8.16-.24 1.84-.16 3.12-.64 3.84-1.28.64-.56 1.12-1.6 1.28-2.96.08-.88.16-2.72.16-5.52v-.4c0-2.64-.08-4.48-.24-5.36-.24-1.28-.64-2.24-1.44-2.8-.8-.64-2.16-1.04-4.08-1.2zm-3.12 9.84-8.8 5.28V10.56l8.8 5.28z"/>
    </symbol>
    <symbol id="instagram" viewBox="0 0 32 32">
      <path d="M28.718 10.756a9.264 9.264 0 0 0-.596-3.145 6.547 6.547 0 0 0-3.743-3.737 9.42 9.42 0 0 0-3.108-.596c-1.368-.061-1.801-.078-5.273-.078s-3.916 0-5.274.078a9.413 9.413 0 0 0-3.106.596 6.541 6.541 0 0 0-3.743 3.737 9.288 9.288 0 0 0-.596 3.101c-.061 1.367-.08 1.8-.08 5.265s0 3.909.08 5.265a9.335 9.335 0 0 0 .596 3.104 6.548 6.548 0 0 0 3.744 3.735 9.37 9.37 0 0 0 3.106.639c1.369.061 1.803.08 5.274.08s3.916 0 5.274-.08a9.362 9.362 0 0 0 3.108-.595 6.555 6.555 0 0 0 3.743-3.737 9.35 9.35 0 0 0 .596-3.104c.061-1.365.08-1.798.08-5.265-.003-3.466-.003-3.906-.082-5.264zM15.99 22.531c-3.631 0-6.572-2.936-6.572-6.561s2.941-6.561 6.572-6.561c3.628 0 6.572 2.936 6.572 6.561s-2.944 6.561-6.572 6.561zm6.834-11.835a1.53 1.53 0 1 1 0-3.06 1.53 1.53 0 1 1 0 3.06z"/>
      <path d="M15.992 19.976a4.004 4.004 0 1 0 0-8.009 4.004 4.004 0 0 0 0 8.009z"/>
    </symbol>
    <symbol id="dbl-arw-rght" viewBox="0 0 32 32">
      <path d="M21.849 16.611c.081-.08.145-.175.188-.28s.066-.217.066-.331-.023-.226-.066-.331a.8734.8734 0 0 0-.188-.28l-3.948-3.94c-.081-.08-.145-.175-.188-.28s-.066-.217-.066-.331c0-.114.023-.226.066-.331s.108-.2.188-.28c.161-.16.379-.25.606-.25s.445.09.606.25l3.948 3.948c.483.484.755 1.14.755 1.824s-.271 1.34-.755 1.824l-3.948 3.948a.8636.8636 0 0 1-.602.25c-.113.001-.225-.021-.33-.064s-.2-.106-.281-.186c-.081-.08-.145-.175-.188-.28s-.066-.217-.066-.331.023-.226.066-.331c.044-.105.108-.2.188-.28l3.948-3.94zM14.624 16.611c.081-.08.145-.175.188-.28s.066-.217.066-.331-.023-.226-.066-.331a.8734.8734 0 0 0-.188-.28l-3.948-3.94c-.081-.08-.145-.175-.188-.28s-.066-.217-.066-.331c0-.114.023-.226.066-.331s.108-.2.188-.28c.161-.16.379-.25.606-.25s.445.09.606.25l3.948 3.948c.483.484.755 1.14.755 1.824s-.271 1.34-.755 1.824l-3.948 3.948a.8636.8636 0 0 1-.602.25c-.113.001-.225-.021-.33-.064s-.2-.106-.281-.186c-.081-.08-.145-.175-.188-.28s-.066-.217-.066-.331.023-.226.066-.331c.044-.105.108-.2.188-.28l3.948-3.94z"/>
    </symbol>
    <symbol id="dbl-arw-lft" viewBox="0 0 32 32">
      <path d="M10.151 16.611c-.081-.08-.145-.175-.188-.28s-.066-.217-.066-.331.022-.226.066-.331c.044-.105.108-.2.188-.28l3.948-3.94c.081-.08.145-.175.188-.28s.066-.217.066-.331c0-.114-.023-.226-.066-.331s-.108-.2-.188-.28c-.161-.16-.379-.25-.606-.25s-.445.09-.606.25l-3.948 3.948c-.483.484-.755 1.14-.755 1.824s.271 1.34.755 1.824l3.948 3.948c.16.159.376.248.602.25.113.001.225-.021.33-.064s.2-.106.281-.186c.081-.08.145-.175.188-.28s.066-.217.066-.331-.023-.226-.066-.331a.8734.8734 0 0 0-.188-.28l-3.948-3.94zM17.376 16.611c-.081-.08-.145-.175-.188-.28s-.066-.217-.066-.331.023-.226.066-.331c.044-.105.108-.2.188-.28l3.948-3.94c.081-.08.145-.175.188-.28s.066-.217.066-.331c0-.114-.023-.226-.066-.331s-.108-.2-.188-.28c-.161-.16-.379-.25-.606-.25s-.445.09-.606.25l-3.948 3.948c-.483.484-.755 1.14-.755 1.824s.271 1.34.755 1.824l3.948 3.948c.16.159.376.248.602.25.113.001.225-.021.33-.064s.2-.106.281-.186c.081-.08.145-.175.188-.28s.066-.217.066-.331-.023-.226-.066-.331a.8734.8734 0 0 0-.188-.28l-3.948-3.94z"/>
    </symbol>
    <symbol id="arw-top" viewBox="0 0 32 32">
      <path stroke-width=".48" d="M17.036 7.986v16.338h-1.738V7.986l-8.169 8.169L5.9 14.926 16.167 4.659l10.267 10.267-1.229 1.229-8.169-8.169z"/>
    </symbol>
    <symbol id="runn-man" viewBox="0 0 32 32">
      <path d="M29.647 9.451c-.419-.501-1.166-.567-1.667-.149l-3.282 2.757-1.509-3.739c-.054-.14-.135-.258-.229-.362-.308-.686-.844-1.275-1.582-1.617-.32-.146-.652-.224-.982-.262-.073-.038-.139-.088-.222-.114l-5.775-1.61c-.324-.088-.65-.031-.917.125-.317.107-.589.338-.719.672l-2.175 5.592c-.236.608.066 1.294.676 1.534.607.236 1.294-.068 1.532-.678l1.837-4.722 2.63.731c-.064.104-.133.201-.185.312l-3.372 7.309c-.049.107-.075.217-.109.328l-4.098 6.871-6.859 2.294c-.776.58-.941 1.674-.367 2.45.577.778 1.674.943 2.448.369l7.018-2.417c.215-.156.371-.36.489-.58.088-.094.189-.168.256-.284l2.443-4.096 4.337 3.696-4.641 5.23c-.639.721-.575 1.832.149 2.469.723.643 1.83.575 2.473-.149l5.791-6.524c.18-.201.288-.433.36-.676.043-.132.043-.269.054-.406 0-.069.026-.132.021-.196-.016-.478-.21-.943-.601-1.274l-3.991-3.403c.288-.274.532-.6.709-.983l2.585-5.599.828 2.206c.035.196.1.388.239.549.125.149.284.248.454.317.017.009.038.01.059.016.107.038.216.075.329.08.133.012.269-.005.405-.043.004-.002.005-.002.005-.002.036-.009.073-.002.109-.017.192-.073.34-.196.466-.34l4.71-3.998c.501-.421.289-1.166-.132-1.667zM23.69 6.602c1.823 0 3.301-1.478 3.301-3.301S25.513 0 23.69 0c-1.823 0-3.301 1.478-3.301 3.301s1.478 3.301 3.301 3.301z"/>
    </symbol>
    <symbol id="cross" viewBox="0 0 32 32">
      <path stroke-linejoin="round" stroke-linecap="round" stroke-width="4.8" d="M28 4 4 28M4 4l24 24"/>
    </symbol>
    <symbol id="heart" viewBox="0 0 32 32">
      <path stroke-linejoin="round" stroke-linecap="round" stroke-width="2.4" d="M27.787 6.147c-.681-.681-1.49-1.222-2.38-1.591s-1.844-.559-2.807-.559c-.963 0-1.917.19-2.807.559s-1.699.909-2.38 1.591L16 7.56l-1.413-1.413C13.211 4.771 11.346 3.999 9.4 3.999s-3.811.773-5.187 2.148c-1.376 1.376-2.148 3.241-2.148 5.187s.773 3.811 2.148 5.187L16 28.308l11.787-11.787c.681-.681 1.222-1.49 1.591-2.38s.559-1.844.559-2.807c0-.963-.19-1.917-.559-2.807s-.909-1.699-1.591-2.38z"/>
    </symbol>
     <symbol id="rbbsh-bin" viewBox="0 0 32 32">
      <path stroke-linejoin="round" stroke-linecap="round" stroke-width="2.4" d="M21.333 8V6.933c0-1.493 0-2.24-.291-2.811a2.666 2.666 0 0 0-1.165-1.165c-.57-.291-1.317-.291-2.811-.291h-2.133c-1.493 0-2.24 0-2.811.291-.502.256-.91.664-1.165 1.165-.291.57-.291 1.317-.291 2.811V8m2.667 7.333V22m5.334-6.667V22M4 8h24m-2.667 0v14.933c0 2.24 0 3.36-.436 4.216a3.9962 3.9962 0 0 1-1.748 1.748c-.856.436-1.976.436-4.216.436h-5.867c-2.24 0-3.36 0-4.216-.436a3.9962 3.9962 0 0 1-1.748-1.748c-.436-.856-.436-1.976-.436-4.216V8"/>
    </symbol>
    <symbol id="arw-rght" viewBox="0 0 32 32">
      <path d="M17.778 17.578c.208-.207.374-.452.486-.723s.171-.561.171-.855a2.223 2.223 0 0 0-.657-1.578L7.578 4.244c-.208-.207-.374-.452-.486-.723s-.171-.561-.171-.855a2.223 2.223 0 0 1 .657-1.578 2.2236 2.2236 0 0 1 3.134 0l10.2 10.2c1.248 1.25 1.95 2.944 1.95 4.711s-.701 3.461-1.95 4.711l-10.2 10.2c-.414.411-.973.642-1.556.645-.292.002-.582-.054-.853-.165s-.517-.274-.725-.479c-.208-.207-.374-.452-.486-.723s-.171-.561-.171-.855.058-.584.171-.855c.113-.271.278-.517.486-.723l10.2-10.178z"/>
    </symbol>
    <symbol id="arw-lft" viewBox="0 0 32 32">
      <path d="M14.222 17.578c-.208-.207-.374-.452-.486-.723s-.171-.561-.171-.855a2.223 2.223 0 0 1 .657-1.578l10.2-10.178c.208-.207.374-.452.486-.723s.171-.561.171-.855a2.223 2.223 0 0 0-.657-1.578 2.2236 2.2236 0 0 0-3.134 0l-10.2 10.2c-1.248 1.25-1.95 2.944-1.95 4.711s.701 3.461 1.95 4.711l10.2 10.2c.414.411.973.642 1.556.645.292.002.582-.054.853-.165s.517-.274.725-.479c.208-.207.374-.452.486-.723s.171-.561.171-.855-.058-.584-.171-.855a2.2194 2.2194 0 0 0-.486-.723l-10.2-10.178z"/>
    </symbol>
    <symbol id="rating-star" viewBox="0 0 32 32">
      <path d="M14.478 2.283c.479-1.474 2.564-1.474 3.043 0l2.43 7.478c.214.659.828 1.106 1.522 1.106h7.863c1.55 0 2.194 1.983.94 2.894l-6.361 4.622c-.561.407-.795 1.13-.581 1.789l2.43 7.478c.479 1.474-1.208 2.7-2.462 1.789l-6.361-4.622a1.6015 1.6015 0 0 0-1.881 0l-6.361 4.622c-1.254.911-2.941-.315-2.462-1.789l2.43-7.478c.214-.659-.02-1.381-.581-1.789l-6.361-4.622c-1.254-.911-.61-2.894.94-2.894h7.863c.693 0 1.308-.446 1.522-1.106l2.43-7.478z"/>
    </symbol>
    <symbol id="quote" viewBox="0 0 32 32">
      <path d="M6.991 17.013c1.953-.774 3.518-.571 4.697.608s1.529 3.058 1.05 5.637c-.368 1.916-1.179 3.389-2.432 4.421-1.216.995-2.634 1.492-4.255 1.492-2.211 0-3.739-.847-4.587-2.542-.847-1.732-1.013-4.053-.497-6.963.295-1.584.774-3.187 1.437-4.808s1.547-3.279 2.653-4.974c1.105-1.695 2.542-3.168 4.311-4.421s3.721-2.063 5.858-2.432l-.553 5.858c-1.805.368-3.408 1.308-4.808 2.818-1.4 1.474-2.358 3.242-2.874 5.305zm16.634 0c1.953-.774 3.518-.571 4.697.608s1.529 3.058 1.05 5.637c-.368 1.916-1.179 3.389-2.431 4.421-1.216.995-2.634 1.492-4.255 1.492-2.211 0-3.739-.847-4.587-2.542-.847-1.732-1.013-4.053-.497-6.963.295-1.584.774-3.187 1.437-4.808s1.547-3.279 2.653-4.974 2.542-3.168 4.311-4.421c1.768-1.253 3.721-2.063 5.858-2.432l-.553 5.858c-1.805.368-3.408 1.308-4.808 2.818-1.4 1.474-2.358 3.242-2.874 5.305z"/>
    </symbol>
    <symbol id="gauntlets" viewBox="0 0 32 32">
      <path d="M5.2 7.429H2.8c-.665 0-1.2.573-1.2 1.286v5.571H.4c-.22 0-.4.193-.4.429v2.571c0 .236.18.429.4.429h1.2v5.571c0 .712.535 1.286 1.2 1.286h2.4c.665 0 1.2-.573 1.2-1.286V8.715c0-.713-.535-1.286-1.2-1.286zm26.4 6.857h-1.2V8.715c0-.713-.535-1.286-1.2-1.286h-2.4c-.665 0-1.2.573-1.2 1.286v14.571c0 .712.535 1.286 1.2 1.286h2.4c.665 0 1.2-.573 1.2-1.286v-5.571h1.2c.22 0 .4-.193.4-.429v-2.571c0-.236-.18-.429-.4-.429zM22.8 4h-2.4c-.665 0-1.2.573-1.2 1.286v9h-6.4v-9C12.8 4.573 12.265 4 11.6 4H9.2C8.535 4 8 4.573 8 5.286v21.428C8 27.427 8.535 28 9.2 28h2.4c.665 0 1.2-.573 1.2-1.286v-9h6.4v9c0 .713.535 1.286 1.2 1.286h2.4c.665 0 1.2-.573 1.2-1.286V5.286C24 4.573 23.465 4 22.8 4z"/>
    </symbol>
    <symbol id="icon-logo" viewBox="0 0 176 32">
      <path d="M6.64 17.707l-6.64-11.040h3.973l4.453 7.653h0.053l4.453-7.653h3.973l-6.64 11.040v7.627h-3.627v-7.627z"></path>
      <path d="M16.894 22.267v-12.533l3.067-3.067h9.6l3.067 3.067v12.533l-3.067 3.067h-9.6l-3.067-3.067zM27.64 22.24l1.36-1.36v-9.76l-1.36-1.36h-5.76l-1.36 1.36v9.76l1.36 1.36h5.76z"></path>
      <path d="M35.166 22.133v-15.467h3.627v14.213l1.36 1.36h5.227l1.36-1.36v-14.213h3.627v15.467l-3.2 3.2h-8.8l-3.2-3.2z"></path>
      <path d="M67.837 19.147v6.187h-3.627v-5.36l-1.6-1.787h-5.813v7.147h-3.627v-18.667h11.707l2.853 2.88v5.653l-1.813 1.84 1.92 2.107zM56.797 15.2h6.427l0.933-0.933v-3.627l-0.933-0.933h-6.427v5.493z"></path>
      <path d="M77.098 6.667h13.493v3.067h-9.867v4.72h9.093v3.013h-9.093v4.8h9.867v3.067h-13.493v-18.667z"></path>
      <path d="M92.603 6.667h3.253l8.32 12.667h0.053v-12.667h3.493v18.667h-3.253l-8.32-12.64h-0.053v12.64h-3.493v-18.667z"></path>
      <path d="M110.53 6.667h13.493v3.067h-9.867v4.72h9.093v3.013h-9.093v4.8h9.867v3.067h-13.493v-18.667z"></path>
      <path d="M140.703 19.147v6.187h-3.627v-5.36l-1.6-1.787h-5.814v7.147h-3.627v-18.667h11.707l2.853 2.88v5.653l-1.813 1.84 1.92 2.107zM129.662 15.2h6.427l0.933-0.933v-3.627l-0.933-0.933h-6.427v5.493z"></path>
      <path d="M143.097 22.267v-12.533l3.067-3.067h9.28l3.013 3.013v2.853h-3.627v-1.52l-1.253-1.253h-5.493l-1.36 1.36v9.76l1.36 1.36h5.547l1.307-1.307v-2.907h-4v-3.093h7.52v7.333l-3.067 3.067h-9.227l-3.067-3.067z"></path>
      <path d="M165.104 17.707l-6.64-11.040h3.973l4.453 7.653h0.053l4.453-7.653h3.973l-6.64 11.040v7.627h-3.627v-7.627z"></path>
    </symbol>
    <symbol id="icon-arrw-right-2" viewBox="0 0 32 32">
      <path stroke-width=".6857" d="M25.163 17.48H1.823v-2.483h23.34l-11.67-11.67 1.756-1.756 14.667 14.667-14.667 14.667-1.756-1.756 11.67-11.67z"/>
    </symbol>
     <symbol id="icon-trash" viewBox="0 0 32 32">
      <path d="M16 2.667c-2.197 0-4 1.803-4 4h-4.169c-0.051-0.009-0.109-0.014-0.169-0.014-0.004 0-0.008 0-0.011 0h0.001c-0.052 0.001-0.102 0.007-0.151 0.015l0.006-0.001h-2.506c-0.004-0-0.009-0-0.014-0-0.552 0-1 0.448-1 1s0.448 1 1 1c0.005 0 0.010-0 0.015-0h1.666v17c0 2.013 1.653 3.667 3.667 3.667h11.333c2.013 0 3.667-1.653 3.667-3.667v-17h1.667c0.004 0 0.009 0 0.014 0 0.552 0 1-0.448 1-1s-0.448-1-1-1c-0.005 0-0.010 0-0.015 0h-2.502c-0.049-0.008-0.105-0.013-0.162-0.013s-0.113 0.005-0.168 0.014l0.006-0.001h-4.173c0-2.197-1.803-4-4-4zM16 4.667c1.116 0 2 0.884 2 2h-4c0-1.116 0.884-2 2-2zM8.667 8.667h14.667v17c0 0.932-0.735 1.667-1.667 1.667h-11.333c-0.932 0-1.667-0.735-1.667-1.667v-17zM13.651 11.986c-0.546 0.009-0.984 0.453-0.984 1 0 0.005 0 0.010 0 0.015v-0.001 10c-0 0.004-0 0.009-0 0.014 0 0.552 0.448 1 1 1s1-0.448 1-1c0-0.005-0-0.010-0-0.015v0.001-10c0-0.004 0-0.009 0-0.014 0-0.552-0.448-1-1-1-0.005 0-0.011 0-0.016 0h0.001zM18.318 11.986c-0.546 0.009-0.984 0.453-0.984 1 0 0.005 0 0.010 0 0.015v-0.001 10c-0 0.004-0 0.009-0 0.014 0 0.552 0.448 1 1 1s1-0.448 1-1c0-0.005-0-0.010-0-0.015v0.001-10c0-0.004 0-0.009 0-0.014 0-0.552-0.448-1-1-1-0.006 0-0.011 0-0.016 0h0.001z"></path>
    </symbol>
    <symbol id="icon-search" viewBox="0 0 18 18">
      <path d="M8.25 14.25a6 6 0 1 0 0-12 6 6 0 0 0 0 12ZM15.75 15.75l-3.262-3.262"/></path>
    </symbol>
  </defs>
</svg>
