<svg width="38" height="38" viewBox="0 0 38 38" fill="none" xmlns="http://www.w3.org/2000/svg">
      <path d="M16 2.667c-2.197 0-4 1.803-4 4h-4.169c-0.051-0.009-0.109-0.014-0.169-0.014-0.004 0-0.008 0-0.011 0h0.001c-0.052 0.001-0.102 0.007-0.151 0.015l0.006-0.001h-2.506c-0.004-0-0.009-0-0.014-0-0.552 0-1 0.448-1 1s0.448 1 1 1c0.005 0 0.010-0 0.015-0h1.666v17c0 2.013 1.653 3.667 3.667 3.667h11.333c2.013 0 3.667-1.653 3.667-3.667v-17h1.667c0.004 0 0.009 0 0.014 0 0.552 0 1-0.448 1-1s-0.448-1-1-1c-0.005 0-0.010 0-0.015 0h-2.502c-0.049-0.008-0.105-0.013-0.162-0.013s-0.113 0.005-0.168 0.014l0.006-0.001h-4.173c0-2.197-1.803-4-4-4zM16 4.667c1.116 0 2 0.884 2 2h-4c0-1.116 0.884-2 2-2zM8.667 8.667h14.667v17c0 0.932-0.735 1.667-1.667 1.667h-11.333c-0.932 0-1.667-0.735-1.667-1.667v-17zM13.651 11.986c-0.546 0.009-0.984 0.453-0.984 1 0 0.005 0 0.010 0 0.015v-0.001 10c-0 0.004-0 0.009-0 0.014 0 0.552 0.448 1 1 1s1-0.448 1-1c0-0.005-0-0.010-0-0.015v0.001-10c0-0.004 0-0.009 0-0.014 0-0.552-0.448-1-1-1-0.005 0-0.011 0-0.016 0h0.001zM18.318 11.986c-0.546 0.009-0.984 0.453-0.984 1 0 0.005 0 0.010 0 0.015v-0.001 10c-0 0.004-0 0.009-0 0.014 0 0.552 0.448 1 1 1s1-0.448 1-1c0-0.005-0-0.010-0-0.015v0.001-10c0-0.004 0-0.009 0-0.014 0-0.552-0.448-1-1-1-0.006 0-0.011 0-0.016 0h0.001z"></path>
</svg>